<?xml version="1.0" encoding="UTF-8" standalone="no"?>
<!DOCTYPE svg PUBLIC "-//W3C//DTD SVG 1.1//EN" "http://www.w3.org/Graphics/SVG/1.1/DTD/svg11.dtd">
<svg xmlns="http://www.w3.org/2000/svg" version="1.1" viewBox="0.00 0.00 128.00 128.00">
<path fill="#58aa50" d="
  M 0.00 66.12
  L 0.00 59.54
  Q 1.02 55.17 3.29 51.51
  C 4.47 49.59 6.47 48.36 7.42 46.48
  Q 7.75 45.84 8.14 46.45
  C 9.95 49.23 12.52 51.49 13.93 54.51
  Q 19.88 67.26 9.31 77.10
  Q 8.98 77.41 8.97 77.87
  L 8.92 80.96
  A 0.34 0.33 0.9 0 1 8.58 81.28
  L 8.27 81.28
  A 0.58 0.57 85.7 0 1 7.72 80.80
  L 7.27 77.78
  A 1.38 1.37 16.8 0 0 6.81 76.93
  Q 1.82 72.52 0.00 66.12
  Z"
/>
<path fill="#8e704c" d="
  M 98.03 73.51
  L 98.06 61.77
  Q 98.06 61.20 97.51 61.04
  L 95.70 60.50
  Q 95.59 60.47 95.58 60.35
  L 95.55 60.05
  A 0.32 0.32 0.0 0 1 95.87 59.70
  Q 100.80 59.59 104.98 59.70
  C 112.03 59.88 114.79 68.79 109.75 73.33
  C 106.28 76.47 100.95 75.86 96.55 75.73
  Q 95.62 75.70 96.24 75.00
  Q 96.61 74.58 97.16 74.50
  Q 98.03 74.38 98.03 73.51
  Z
  M 100.61 62.26
  L 100.59 73.12
  A 1.47 1.47 0.0 0 0 102.06 74.59
  L 103.37 74.60
  A 6.22 6.12 -89.9 0 0 109.50 68.39
  L 109.50 67.03
  A 6.22 6.12 -89.9 0 0 103.39 60.80
  L 102.08 60.79
  A 1.47 1.47 0.0 0 0 100.61 62.26
  Z"
/>
<path fill="#8e704c" d="
  M 125.00 66.99
  C 125.20 67.01 125.55 67.13 125.71 67.24
  C 130.19 70.37 126.78 75.14 122.59 75.56
  Q 118.90 75.94 114.40 75.69
  Q 114.24 75.68 114.21 75.52
  L 114.14 75.22
  Q 114.04 74.77 114.50 74.74
  Q 116.40 74.60 116.42 72.84
  Q 116.49 67.08 116.44 62.24
  Q 116.43 60.50 114.52 60.67
  Q 114.11 60.71 114.14 60.30
  L 114.16 59.96
  Q 114.18 59.69 114.45 59.69
  Q 118.55 59.67 122.46 59.69
  C 126.29 59.72 128.24 63.88 124.82 66.24
  Q 123.95 66.84 125.00 66.99
  Z
  M 118.95 61.23
  L 118.89 66.17
  A 0.36 0.36 0.0 0 0 119.25 66.54
  L 121.17 66.56
  A 2.84 2.62 0.6 0 0 124.04 63.97
  L 124.04 63.55
  A 2.84 2.62 0.6 0 0 121.23 60.90
  L 119.31 60.88
  A 0.36 0.36 0.0 0 0 118.95 61.23
  Z
  M 118.88 68.81
  L 118.96 73.47
  A 1.11 1.11 0.0 0 0 120.09 74.56
  L 121.64 74.54
  A 3.56 3.25 -1.0 0 0 125.14 71.23
  L 125.14 70.85
  A 3.56 3.25 -1.0 0 0 121.52 67.66
  L 119.97 67.69
  A 1.11 1.11 0.0 0 0 118.88 68.81
  Z"
/>
<path fill="#271d11" d="
  M 25.30 66.49
  Q 28.65 63.83 31.00 66.41
  Q 31.48 66.93 32.00 66.45
  C 34.33 64.35 37.74 64.59 38.32 68.16
  Q 38.73 70.69 38.43 73.66
  Q 38.35 74.41 39.06 74.67
  L 39.94 75.01
  Q 40.33 75.15 40.16 75.53
  Q 40.02 75.84 39.69 75.82
  Q 37.48 75.70 35.48 75.88
  Q 34.58 75.96 35.10 75.22
  Q 35.39 74.82 35.86 74.66
  Q 36.44 74.45 36.43 73.82
  L 36.34 68.74
  A 2.03 2.03 0.0 0 0 33.98 66.77
  L 33.39 66.86
  Q 31.59 67.15 31.60 68.98
  L 31.63 73.86
  Q 31.63 74.46 32.18 74.71
  L 32.94 75.05
  Q 33.29 75.20 33.24 75.57
  Q 33.21 75.73 33.07 75.81
  Q 32.87 75.92 32.63 75.90
  Q 30.49 75.68 28.38 75.90
  Q 28.07 75.94 27.90 75.68
  Q 27.81 75.56 27.87 75.41
  Q 27.95 75.20 28.15 75.11
  Q 28.63 74.88 29.09 74.59
  A 1.00 0.98 74.1 0 0 29.55 73.75
  L 29.54 68.91
  Q 29.53 66.53 27.16 66.74
  L 26.74 66.77
  Q 24.69 66.95 24.70 69.01
  L 24.73 73.94
  Q 24.73 74.47 25.20 74.71
  L 25.58 74.91
  Q 27.36 75.83 25.36 75.81
  L 21.30 75.77
  Q 20.56 75.77 20.96 75.14
  Q 21.21 74.75 21.68 74.70
  A 0.99 0.99 0.0 0 0 22.57 73.73
  L 22.63 67.96
  A 1.01 1.01 0.0 0 0 21.84 66.96
  Q 21.44 66.86 21.08 66.64
  Q 20.32 66.18 21.19 65.97
  L 24.09 65.29
  Q 24.78 65.13 24.75 65.83
  L 24.74 66.21
  Q 24.71 66.95 25.30 66.49
  Z"
/>
<path fill="#271d11" d="
  M 43.6077 74.6567
  A 5.62 5.40 132.3 0 1 43.3960 66.8657
  A 5.62 5.40 132.3 0 1 51.1723 66.3433
  A 5.62 5.40 132.3 0 1 51.3840 74.1343
  A 5.62 5.40 132.3 0 1 43.6077 74.6567
  Z
  M 48.3085 74.9069
  A 4.48 3.12 78.3 0 0 50.4552 69.8873
  A 4.48 3.12 78.3 0 0 46.4915 66.1331
  A 4.48 3.12 78.3 0 0 44.3448 71.1527
  A 4.48 3.12 78.3 0 0 48.3085 74.9069
  Z"
/>
<path fill="#271d11" d="
  M 60.06 66.22
  C 61.80 64.57 64.84 64.38 65.80 66.92
  C 66.57 68.96 66.27 71.64 66.29 73.80
  Q 66.30 74.48 66.98 74.53
  Q 67.56 74.58 67.86 75.03
  Q 68.34 75.77 67.46 75.78
  Q 65.25 75.81 63.05 75.74
  Q 62.77 75.73 62.55 75.54
  Q 62.41 75.42 62.41 75.22
  Q 62.41 74.92 62.69 74.84
  L 63.52 74.62
  A 0.74 0.72 -7.9 0 0 64.06 73.92
  L 64.05 68.95
  Q 64.04 66.32 61.45 66.74
  L 60.85 66.83
  Q 59.24 67.09 59.26 68.72
  L 59.29 73.95
  A 0.73 0.73 0.0 0 0 60.07 74.67
  Q 60.58 74.63 60.81 75.05
  Q 61.22 75.83 60.34 75.82
  L 55.74 75.78
  A 0.50 0.50 0.0 0 1 55.26 75.15
  Q 55.30 75.02 55.39 74.93
  Q 55.53 74.77 55.74 74.77
  Q 56.21 74.77 56.53 74.49
  Q 56.96 74.14 56.96 73.58
  L 56.99 67.93
  Q 57.00 67.36 56.46 67.15
  L 56.02 66.96
  Q 53.99 66.15 56.14 65.76
  Q 57.30 65.54 58.42 65.13
  Q 59.10 64.88 59.23 65.59
  L 59.31 65.98
  Q 59.46 66.79 60.06 66.22
  Z"
/>
<path fill="#271d11" d="
  M 72.27 72.44
  C 67.52 69.62 72.26 63.73 76.26 65.23
  Q 78.34 66.00 80.30 65.58
  Q 80.84 65.46 80.85 66.01
  L 80.85 66.37
  Q 80.85 66.84 80.39 66.95
  L 79.24 67.24
  A 0.47 0.46 80.8 0 0 78.89 67.74
  Q 79.25 71.45 76.12 72.24
  Q 75.39 72.43 74.75 72.67
  Q 71.98 73.70 74.88 74.27
  C 76.80 74.65 80.70 74.09 80.67 77.22
  C 80.63 81.79 73.77 83.58 70.69 80.87
  A 2.25 2.25 0.0 0 1 70.76 77.43
  L 71.99 76.42
  Q 72.59 75.93 71.92 75.55
  L 71.44 75.28
  A 0.84 0.83 28.4 0 1 71.10 74.16
  Q 71.43 73.54 72.18 73.29
  Q 73.17 72.97 72.27 72.44
  Z
  M 75.1714 71.6639
  A 2.86 2.23 79.7 0 0 76.8541 68.4513
  A 2.86 2.23 79.7 0 0 74.1486 66.0361
  A 2.86 2.23 79.7 0 0 72.4659 69.2487
  A 2.86 2.23 79.7 0 0 75.1714 71.6639
  Z
  M 78.8199 78.5505
  A 3.49 2.36 0.5 0 0 75.3506 76.1601
  A 3.49 2.36 0.5 0 0 71.8401 78.4895
  A 3.49 2.36 0.5 0 0 75.3094 80.8799
  A 3.49 2.36 0.5 0 0 78.8199 78.5505
  Z"
/>
<path fill="#271d11" d="
  M 84.2500 74.6035
  A 5.62 5.39 133.1 0 1 84.1544 66.8172
  A 5.62 5.39 133.1 0 1 91.9300 66.3965
  A 5.62 5.39 133.1 0 1 92.0256 74.1828
  A 5.62 5.39 133.1 0 1 84.2500 74.6035
  Z
  M 89.0238 74.9037
  A 4.48 3.12 78.1 0 0 91.1529 69.8766
  A 4.48 3.12 78.1 0 0 87.1762 66.1363
  A 4.48 3.12 78.1 0 0 85.0471 71.1634
  A 4.48 3.12 78.1 0 0 89.0238 74.9037
  Z"
/>
</svg>
