<?xml version="1.0" encoding="UTF-8" standalone="no"?>
<!DOCTYPE svg PUBLIC "-//W3C//DTD SVG 1.1//EN" "http://www.w3.org/Graphics/SVG/1.1/DTD/svg11.dtd">
<svg xmlns="http://www.w3.org/2000/svg" version="1.1" viewBox="0 0 540 557">
<g stroke-width="2.00" fill="none" stroke-linecap="butt">
<path stroke="#808080" vector-effect="non-scaling-stroke" d="
  M 261.43 388.56
  Q 261.18 430.53 263.73 468.50
  C 264.51 480.12 266.02 493.77 270.55 504.72
  C 281.04 530.07 299.97 544.90 328.56 542.84
  C 346.32 541.55 368.35 535.22 381.96 523.20
  C 398.51 508.57 403.04 487.81 406.00 465.99
  Q 413.38 411.63 416.61 382.39
  A 0.44 0.43 9.5 0 1 417.14 382.02
  C 434.33 385.96 451.57 384.61 468.68 381.15
  Q 489.99 376.85 507.55 364.08
  C 513.45 359.78 523.18 351.23 524.24 343.75
  C 525.67 333.68 516.36 329.35 507.75 330.26
  C 487.33 332.39 466.80 339.66 446.44 331.55
  Q 444.52 330.78 445.64 329.05
  Q 490.98 258.94 512.32 176.96
  Q 520.51 145.46 521.83 115.77
  C 522.60 98.52 519.73 80.51 508.24 67.01
  C 461.60 12.19 387.34 4.49 322.21 25.60
  A 1.69 1.68 -47.2 0 1 321.26 25.64
  C 285.72 17.19 247.61 18.59 216.16 39.02
  A 1.01 0.97 37.1 0 1 215.27 39.13
  C 177.75 25.58 134.14 17.33 94.51 25.23
  C 23.93 39.32 8.60 111.13 18.37 171.48
  C 25.05 212.76 63.40 409.53 127.08 398.51
  C 136.80 396.82 145.37 390.31 151.76 382.75
  Q 173.01 357.59 195.45 333.37
  A 0.78 0.63 -52.9 0 1 196.29 333.16
  Q 209.87 340.34 225.27 341.18
  Q 227.27 341.29 226.05 342.80
  C 218.60 352.01 214.77 358.67 202.49 361.76
  Q 191.00 364.65 179.50 367.47
  C 174.35 368.73 167.31 372.80 164.74 377.60
  C 158.81 388.65 171.11 397.76 179.98 401.01
  C 207.38 411.04 238.87 408.09 261.06 388.40
  Q 261.44 388.06 261.43 388.56"
/>
<path stroke="#99b3c8" vector-effect="non-scaling-stroke" d="
  M 348.58 35.05
  C 392.86 55.23 425.98 93.80 443.03 138.91
  C 444.44 142.67 446.55 149.77 446.49 152.76
  Q 446.12 170.08 443.62 187.20
  Q 441.69 200.41 441.41 204.86
  C 440.40 220.39 443.00 235.64 444.59 250.74
  C 446.81 271.80 444.33 293.05 433.45 311.55
  A 1.13 0.34 -57.6 0 0 433.17 312.56
  L 435.26 315.24
  A 0.52 0.44 -49.7 0 0 436.04 315.11
  Q 473.19 255.99 493.23 189.07
  Q 502.75 157.29 505.58 124.24
  C 506.56 112.89 506.98 98.24 502.54 87.01
  Q 500.39 81.60 495.05 75.45
  C 458.08 32.88 401.77 23.73 348.63 34.62
  Q 347.94 34.76 348.58 35.05"
/>
<path stroke="#99b3c8" vector-effect="non-scaling-stroke" d="
  M 173.97 161.47
  C 200.02 147.49 247.52 134.46 261.85 172.90
  Q 263.88 178.35 266.50 192.32
  C 270.07 211.41 271.69 231.90 269.29 251.21
  C 265.85 278.92 251.77 300.77 243.65 328.73
  A 0.32 0.32 4.7 0 0 244.00 329.14
  C 259.95 327.33 272.76 338.09 276.58 352.92
  Q 277.75 357.46 277.53 366.19
  Q 276.46 409.45 278.41 452.68
  C 279.38 474.23 279.86 493.72 291.07 510.46
  C 306.88 534.06 334.56 528.96 357.31 520.06
  C 377.19 512.28 385.56 496.00 388.79 475.51
  Q 396.08 429.26 401.83 373.40
  C 402.38 368.04 402.39 361.63 403.00 355.77
  Q 405.20 334.60 425.38 328.71
  A 0.47 0.47 61.4 0 0 425.60 327.95
  Q 413.61 314.31 405.64 298.17
  C 394.63 275.86 381.91 254.78 372.60 231.60
  C 366.58 216.63 360.41 194.55 363.71 178.48
  C 369.48 150.44 395.48 143.00 420.45 144.88
  Q 425.19 145.24 428.33 145.16
  A 0.36 0.36 -11.1 0 0 428.65 144.68
  C 402.78 76.00 339.75 29.25 264.44 37.41
  C 202.53 44.11 177.25 107.67 173.56 161.21
  Q 173.53 161.71 173.97 161.47"
/>
<path stroke="#99b3c8" vector-effect="non-scaling-stroke" d="
  M 201.17 50.89
  C 164.33 38.61 114.06 29.89 77.55 47.08
  C 32.24 68.42 26.77 126.34 33.70 169.39
  Q 44.76 238.05 67.64 303.78
  C 73.54 320.70 102.00 396.99 129.71 381.15
  Q 135.61 377.78 138.20 374.69
  Q 159.74 349.09 182.37 324.43
  A 0.50 0.49 42.5 0 0 182.33 323.73
  Q 156.62 299.88 155.22 265.53
  Q 155.00 260.16 156.34 247.50
  Q 158.74 224.74 157.98 201.82
  C 157.62 190.82 156.86 179.14 157.39 168.83
  C 159.56 126.90 171.01 82.28 201.28 51.37
  A 0.29 0.29 -58.0 0 0 201.17 50.89"
/>
<path stroke="#99b3c8" vector-effect="non-scaling-stroke" d="
  M 384.49 169.74
  C 373.08 182.00 380.23 207.21 385.38 221.08
  C 395.33 247.83 410.13 272.03 422.86 297.50
  Q 423.08 297.95 423.29 297.50
  C 430.70 281.27 430.72 262.90 428.53 245.16
  C 425.88 223.82 424.63 209.95 427.26 191.75
  C 428.66 182.05 430.59 171.66 430.47 161.87
  A 0.59 0.59 3.5 0 0 429.96 161.30
  C 416.47 159.56 395.02 158.43 384.49 169.74"
/>
<path stroke="#99b3c8" vector-effect="non-scaling-stroke" d="
  M 247.69 180.13
  C 239.18 148.04 191.08 168.45 174.56 179.41
  Q 172.65 180.68 172.82 182.97
  Q 175.30 216.78 171.70 250.37
  Q 170.47 261.86 170.83 267.16
  C 172.91 297.82 195.66 324.29 227.34 325.68
  A 1.06 1.05 9.2 0 0 228.39 324.93
  Q 231.54 314.48 235.35 304.27
  C 239.11 294.21 246.14 279.99 249.73 268.69
  C 258.49 241.08 254.94 207.48 247.69 180.13"
/>
<path stroke="#99b3c8" vector-effect="non-scaling-stroke" d="
  M 418.75 365.73
  Q 423.03 367.65 427.52 368.10
  C 454.61 370.78 482.69 365.41 503.63 347.00
  Q 504.00 346.66 503.51 346.76
  C 481.93 350.85 454.47 355.16 434.92 342.56
  A 1.20 1.15 53.3 0 0 434.01 342.41
  Q 427.59 344.08 425.18 345.43
  C 418.46 349.20 417.50 358.48 418.43 365.30
  A 0.59 0.58 -82.2 0 0 418.75 365.73"
/>
<path stroke="#99b3c8" vector-effect="non-scaling-stroke" d="
  M 181.18 384.14
  Q 184.79 386.53 188.65 387.66
  C 215.69 395.58 243.72 390.06 260.18 365.89
  C 265.51 358.07 257.81 345.73 249.18 344.53
  Q 246.75 344.19 244.86 345.76
  C 236.54 352.63 231.61 363.27 222.86 369.47
  C 211.13 377.77 194.91 379.38 181.30 383.32
  Q 180.36 383.60 181.18 384.14"
/>
<path stroke="#99b3c8" vector-effect="non-scaling-stroke" d="
  M 391.26 172.69
  C 389.78 174.63 389.51 175.80 391.06 177.91
  C 398.53 188.08 412.06 184.00 416.10 173.16
  A 1.61 1.52 -43.5 0 0 416.15 172.20
  C 414.01 164.39 396.99 168.70 392.73 171.35
  Q 391.87 171.88 391.26 172.69"
/>
<path stroke="#99b3c8" vector-effect="non-scaling-stroke" d="
  M 239.06 175.94
  C 233.52 172.19 220.33 169.26 214.54 174.17
  Q 211.89 176.41 213.38 179.53
  C 223.86 201.50 250.17 183.44 239.06 175.94"
/>
</g>
<path fill="#000000" d="
  M 540.00 337.31
  L 540.00 348.06
  Q 536.78 359.53 528.96 367.22
  C 502.45 393.26 465.68 402.83 429.11 400.49
  A 1.05 1.04 2.9 0 0 427.99 401.49
  C 427.84 405.05 427.31 408.82 427.20 412.17
  C 425.54 462.09 419.35 529.37 362.80 549.28
  Q 347.74 554.59 331.94 557.00
  L 310.94 557.00
  C 278.67 552.29 265.86 528.15 257.45 499.71
  C 253.27 485.57 251.68 470.34 250.85 455.57
  Q 249.74 435.80 249.28 415.98
  A 0.37 0.37 -12.0 0 0 248.77 415.65
  C 226.22 425.23 200.91 424.97 177.79 417.40
  Q 164.55 413.07 155.55 403.64
  A 1.18 1.17 49.2 0 0 153.97 403.52
  C 114.97 433.63 80.14 401.72 61.97 367.73
  Q 44.92 335.81 33.46 299.54
  C 20.63 258.93 9.75 217.03 3.26 174.90
  C -4.00 127.80 1.83 71.60 38.69 37.27
  C 84.12 -5.04 159.32 5.13 212.42 22.92
  A 2.40 2.37 -50.0 0 0 214.35 22.74
  C 247.75 4.14 283.96 3.36 320.88 9.24
  Q 323.26 9.62 325.57 9.00
  C 395.16 -9.57 469.52 -0.95 519.06 55.89
  C 527.84 65.96 533.37 76.10 535.60 88.68
  C 541.11 119.63 535.05 155.23 527.43 183.94
  Q 508.42 255.63 470.72 319.50
  Q 470.05 320.62 471.35 320.51
  Q 487.12 319.06 502.96 315.98
  C 519.93 312.68 535.30 320.09 540.00 337.31
  Z
  M 261.43 388.56
  Q 261.18 430.53 263.73 468.50
  C 264.51 480.12 266.02 493.77 270.55 504.72
  C 281.04 530.07 299.97 544.90 328.56 542.84
  C 346.32 541.55 368.35 535.22 381.96 523.20
  C 398.51 508.57 403.04 487.81 406.00 465.99
  Q 413.38 411.63 416.61 382.39
  A 0.44 0.43 9.5 0 1 417.14 382.02
  C 434.33 385.96 451.57 384.61 468.68 381.15
  Q 489.99 376.85 507.55 364.08
  C 513.45 359.78 523.18 351.23 524.24 343.75
  C 525.67 333.68 516.36 329.35 507.75 330.26
  C 487.33 332.39 466.80 339.66 446.44 331.55
  Q 444.52 330.78 445.64 329.05
  Q 490.98 258.94 512.32 176.96
  Q 520.51 145.46 521.83 115.77
  C 522.60 98.52 519.73 80.51 508.24 67.01
  C 461.60 12.19 387.34 4.49 322.21 25.60
  A 1.69 1.68 -47.2 0 1 321.26 25.64
  C 285.72 17.19 247.61 18.59 216.16 39.02
  A 1.01 0.97 37.1 0 1 215.27 39.13
  C 177.75 25.58 134.14 17.33 94.51 25.23
  C 23.93 39.32 8.60 111.13 18.37 171.48
  C 25.05 212.76 63.40 409.53 127.08 398.51
  C 136.80 396.82 145.37 390.31 151.76 382.75
  Q 173.01 357.59 195.45 333.37
  A 0.78 0.63 -52.9 0 1 196.29 333.16
  Q 209.87 340.34 225.27 341.18
  Q 227.27 341.29 226.05 342.80
  C 218.60 352.01 214.77 358.67 202.49 361.76
  Q 191.00 364.65 179.50 367.47
  C 174.35 368.73 167.31 372.80 164.74 377.60
  C 158.81 388.65 171.11 397.76 179.98 401.01
  C 207.38 411.04 238.87 408.09 261.06 388.40
  Q 261.44 388.06 261.43 388.56
  Z"
/>
<path fill="#ffffff" d="
  M 261.06 388.40
  C 238.87 408.09 207.38 411.04 179.98 401.01
  C 171.11 397.76 158.81 388.65 164.74 377.60
  C 167.31 372.80 174.35 368.73 179.50 367.47
  Q 191.00 364.65 202.49 361.76
  C 214.77 358.67 218.60 352.01 226.05 342.80
  Q 227.27 341.29 225.27 341.18
  Q 209.87 340.34 196.29 333.16
  A 0.78 0.63 -52.9 0 0 195.45 333.37
  Q 173.01 357.59 151.76 382.75
  C 145.37 390.31 136.80 396.82 127.08 398.51
  C 63.40 409.53 25.05 212.76 18.37 171.48
  C 8.60 111.13 23.93 39.32 94.51 25.23
  C 134.14 17.33 177.75 25.58 215.27 39.13
  A 1.01 0.97 37.1 0 0 216.16 39.02
  C 247.61 18.59 285.72 17.19 321.26 25.64
  A 1.69 1.68 -47.2 0 0 322.21 25.60
  C 387.34 4.49 461.60 12.19 508.24 67.01
  C 519.73 80.51 522.60 98.52 521.83 115.77
  Q 520.51 145.46 512.32 176.96
  Q 490.98 258.94 445.64 329.05
  Q 444.52 330.78 446.44 331.55
  C 466.80 339.66 487.33 332.39 507.75 330.26
  C 516.36 329.35 525.67 333.68 524.24 343.75
  C 523.18 351.23 513.45 359.78 507.55 364.08
  Q 489.99 376.85 468.68 381.15
  C 451.57 384.61 434.33 385.96 417.14 382.02
  A 0.44 0.43 9.5 0 0 416.61 382.39
  Q 413.38 411.63 406.00 465.99
  C 403.04 487.81 398.51 508.57 381.96 523.20
  C 368.35 535.22 346.32 541.55 328.56 542.84
  C 299.97 544.90 281.04 530.07 270.55 504.72
  C 266.02 493.77 264.51 480.12 263.73 468.50
  Q 261.18 430.53 261.43 388.56
  Q 261.44 388.06 261.06 388.40
  Z
  M 348.58 35.05
  C 392.86 55.23 425.98 93.80 443.03 138.91
  C 444.44 142.67 446.55 149.77 446.49 152.76
  Q 446.12 170.08 443.62 187.20
  Q 441.69 200.41 441.41 204.86
  C 440.40 220.39 443.00 235.64 444.59 250.74
  C 446.81 271.80 444.33 293.05 433.45 311.55
  A 1.13 0.34 -57.6 0 0 433.17 312.56
  L 435.26 315.24
  A 0.52 0.44 -49.7 0 0 436.04 315.11
  Q 473.19 255.99 493.23 189.07
  Q 502.75 157.29 505.58 124.24
  C 506.56 112.89 506.98 98.24 502.54 87.01
  Q 500.39 81.60 495.05 75.45
  C 458.08 32.88 401.77 23.73 348.63 34.62
  Q 347.94 34.76 348.58 35.05
  Z
  M 173.97 161.47
  C 200.02 147.49 247.52 134.46 261.85 172.90
  Q 263.88 178.35 266.50 192.32
  C 270.07 211.41 271.69 231.90 269.29 251.21
  C 265.85 278.92 251.77 300.77 243.65 328.73
  A 0.32 0.32 4.7 0 0 244.00 329.14
  C 259.95 327.33 272.76 338.09 276.58 352.92
  Q 277.75 357.46 277.53 366.19
  Q 276.46 409.45 278.41 452.68
  C 279.38 474.23 279.86 493.72 291.07 510.46
  C 306.88 534.06 334.56 528.96 357.31 520.06
  C 377.19 512.28 385.56 496.00 388.79 475.51
  Q 396.08 429.26 401.83 373.40
  C 402.38 368.04 402.39 361.63 403.00 355.77
  Q 405.20 334.60 425.38 328.71
  A 0.47 0.47 61.4 0 0 425.60 327.95
  Q 413.61 314.31 405.64 298.17
  C 394.63 275.86 381.91 254.78 372.60 231.60
  C 366.58 216.63 360.41 194.55 363.71 178.48
  C 369.48 150.44 395.48 143.00 420.45 144.88
  Q 425.19 145.24 428.33 145.16
  A 0.36 0.36 -11.1 0 0 428.65 144.68
  C 402.78 76.00 339.75 29.25 264.44 37.41
  C 202.53 44.11 177.25 107.67 173.56 161.21
  Q 173.53 161.71 173.97 161.47
  Z
  M 201.17 50.89
  C 164.33 38.61 114.06 29.89 77.55 47.08
  C 32.24 68.42 26.77 126.34 33.70 169.39
  Q 44.76 238.05 67.64 303.78
  C 73.54 320.70 102.00 396.99 129.71 381.15
  Q 135.61 377.78 138.20 374.69
  Q 159.74 349.09 182.37 324.43
  A 0.50 0.49 42.5 0 0 182.33 323.73
  Q 156.62 299.88 155.22 265.53
  Q 155.00 260.16 156.34 247.50
  Q 158.74 224.74 157.98 201.82
  C 157.62 190.82 156.86 179.14 157.39 168.83
  C 159.56 126.90 171.01 82.28 201.28 51.37
  A 0.29 0.29 -58.0 0 0 201.17 50.89
  Z
  M 384.49 169.74
  C 373.08 182.00 380.23 207.21 385.38 221.08
  C 395.33 247.83 410.13 272.03 422.86 297.50
  Q 423.08 297.95 423.29 297.50
  C 430.70 281.27 430.72 262.90 428.53 245.16
  C 425.88 223.82 424.63 209.95 427.26 191.75
  C 428.66 182.05 430.59 171.66 430.47 161.87
  A 0.59 0.59 3.5 0 0 429.96 161.30
  C 416.47 159.56 395.02 158.43 384.49 169.74
  Z
  M 247.69 180.13
  C 239.18 148.04 191.08 168.45 174.56 179.41
  Q 172.65 180.68 172.82 182.97
  Q 175.30 216.78 171.70 250.37
  Q 170.47 261.86 170.83 267.16
  C 172.91 297.82 195.66 324.29 227.34 325.68
  A 1.06 1.05 9.2 0 0 228.39 324.93
  Q 231.54 314.48 235.35 304.27
  C 239.11 294.21 246.14 279.99 249.73 268.69
  C 258.49 241.08 254.94 207.48 247.69 180.13
  Z
  M 418.75 365.73
  Q 423.03 367.65 427.52 368.10
  C 454.61 370.78 482.69 365.41 503.63 347.00
  Q 504.00 346.66 503.51 346.76
  C 481.93 350.85 454.47 355.16 434.92 342.56
  A 1.20 1.15 53.3 0 0 434.01 342.41
  Q 427.59 344.08 425.18 345.43
  C 418.46 349.20 417.50 358.48 418.43 365.30
  A 0.59 0.58 -82.2 0 0 418.75 365.73
  Z
  M 181.18 384.14
  Q 184.79 386.53 188.65 387.66
  C 215.69 395.58 243.72 390.06 260.18 365.89
  C 265.51 358.07 257.81 345.73 249.18 344.53
  Q 246.75 344.19 244.86 345.76
  C 236.54 352.63 231.61 363.27 222.86 369.47
  C 211.13 377.77 194.91 379.38 181.30 383.32
  Q 180.36 383.60 181.18 384.14
  Z"
/>
<path fill="#336791" d="
  M 443.03 138.91
  C 425.98 93.80 392.86 55.23 348.58 35.05
  Q 347.94 34.76 348.63 34.62
  C 401.77 23.73 458.08 32.88 495.05 75.45
  Q 500.39 81.60 502.54 87.01
  C 506.98 98.24 506.56 112.89 505.58 124.24
  Q 502.75 157.29 493.23 189.07
  Q 473.19 255.99 436.04 315.11
  A 0.52 0.44 -49.7 0 1 435.26 315.24
  L 433.17 312.56
  A 1.13 0.34 -57.6 0 1 433.45 311.55
  C 444.33 293.05 446.81 271.80 444.59 250.74
  C 443.00 235.64 440.40 220.39 441.41 204.86
  Q 441.69 200.41 443.62 187.20
  Q 446.12 170.08 446.49 152.76
  C 446.55 149.77 444.44 142.67 443.03 138.91
  Z"
/>
<path fill="#336791" d="
  M 261.85 172.90
  C 247.52 134.46 200.02 147.49 173.97 161.47
  Q 173.53 161.71 173.56 161.21
  C 177.25 107.67 202.53 44.11 264.44 37.41
  C 339.75 29.25 402.78 76.00 428.65 144.68
  A 0.36 0.36 -10.7 0 1 428.33 145.16
  Q 425.19 145.24 420.45 144.88
  C 395.48 143.00 369.48 150.44 363.71 178.48
  C 360.41 194.55 366.58 216.63 372.60 231.60
  C 381.91 254.78 394.63 275.86 405.64 298.17
  Q 413.61 314.31 425.60 327.95
  A 0.47 0.47 61.4 0 1 425.38 328.71
  Q 405.20 334.60 403.00 355.77
  C 402.39 361.63 402.38 368.04 401.83 373.40
  Q 396.08 429.26 388.79 475.51
  C 385.56 496.00 377.19 512.28 357.31 520.06
  C 334.56 528.96 306.88 534.06 291.07 510.46
  C 279.86 493.72 279.38 474.23 278.41 452.68
  Q 276.46 409.45 277.53 366.19
  Q 277.75 357.46 276.58 352.92
  C 272.76 338.09 259.95 327.33 244.00 329.14
  A 0.32 0.32 4.7 0 1 243.65 328.73
  C 251.77 300.77 265.85 278.92 269.29 251.21
  C 271.69 231.90 270.07 211.41 266.50 192.32
  Q 263.88 178.35 261.85 172.90
  Z"
/>
<path fill="#336791" d="
  M 201.17 50.89
  A 0.29 0.29 -58.0 0 1 201.28 51.37
  C 171.01 82.28 159.56 126.90 157.39 168.83
  C 156.86 179.14 157.62 190.82 157.98 201.82
  Q 158.74 224.74 156.34 247.50
  Q 155.00 260.16 155.22 265.53
  Q 156.62 299.88 182.33 323.73
  A 0.50 0.49 42.5 0 1 182.37 324.43
  Q 159.74 349.09 138.20 374.69
  Q 135.61 377.78 129.71 381.15
  C 102.00 396.99 73.54 320.70 67.64 303.78
  Q 44.76 238.05 33.70 169.39
  C 26.77 126.34 32.24 68.42 77.55 47.08
  C 114.06 29.89 164.33 38.61 201.17 50.89
  Z"
/>
<path fill="#336791" d="
  M 384.49 169.74
  C 395.02 158.43 416.47 159.56 429.96 161.30
  A 0.59 0.59 3.5 0 1 430.47 161.87
  C 430.59 171.66 428.66 182.05 427.26 191.75
  C 424.63 209.95 425.88 223.82 428.53 245.16
  C 430.72 262.90 430.70 281.27 423.29 297.50
  Q 423.08 297.95 422.86 297.50
  C 410.13 272.03 395.33 247.83 385.38 221.08
  C 380.23 207.21 373.08 182.00 384.49 169.74
  Z
  M 391.26 172.69
  C 389.78 174.63 389.51 175.80 391.06 177.91
  C 398.53 188.08 412.06 184.00 416.10 173.16
  A 1.61 1.52 -43.5 0 0 416.15 172.20
  C 414.01 164.39 396.99 168.70 392.73 171.35
  Q 391.87 171.88 391.26 172.69
  Z"
/>
<path fill="#336791" d="
  M 174.56 179.41
  C 191.08 168.45 239.18 148.04 247.69 180.13
  C 254.94 207.48 258.49 241.08 249.73 268.69
  C 246.14 279.99 239.11 294.21 235.35 304.27
  Q 231.54 314.48 228.39 324.93
  A 1.06 1.05 9.2 0 1 227.34 325.68
  C 195.66 324.29 172.91 297.82 170.83 267.16
  Q 170.47 261.86 171.70 250.37
  Q 175.30 216.78 172.82 182.97
  Q 172.65 180.68 174.56 179.41
  Z
  M 239.06 175.94
  C 233.52 172.19 220.33 169.26 214.54 174.17
  Q 211.89 176.41 213.38 179.53
  C 223.86 201.50 250.17 183.44 239.06 175.94
  Z"
/>
<path fill="#ffffff" d="
  M 391.26 172.69
  Q 391.87 171.88 392.73 171.35
  C 396.99 168.70 414.01 164.39 416.15 172.20
  A 1.61 1.52 -43.5 0 1 416.10 173.16
  C 412.06 184.00 398.53 188.08 391.06 177.91
  C 389.51 175.80 389.78 174.63 391.26 172.69
  Z"
/>
<path fill="#ffffff" d="
  M 239.06 175.94
  C 250.17 183.44 223.86 201.50 213.38 179.53
  Q 211.89 176.41 214.54 174.17
  C 220.33 169.26 233.52 172.19 239.06 175.94
  Z"
/>
<path fill="#336791" d="
  M 418.75 365.73
  A 0.59 0.58 -82.2 0 1 418.43 365.30
  C 417.50 358.48 418.46 349.20 425.18 345.43
  Q 427.59 344.08 434.01 342.41
  A 1.20 1.15 53.3 0 1 434.92 342.56
  C 454.47 355.16 481.93 350.85 503.51 346.76
  Q 504.00 346.66 503.63 347.00
  C 482.69 365.41 454.61 370.78 427.52 368.10
  Q 423.03 367.65 418.75 365.73
  Z"
/>
<path fill="#336791" d="
  M 181.18 384.14
  Q 180.36 383.60 181.30 383.32
  C 194.91 379.38 211.13 377.77 222.86 369.47
  C 231.61 363.27 236.54 352.63 244.86 345.76
  Q 246.75 344.19 249.18 344.53
  C 257.81 345.73 265.51 358.07 260.18 365.89
  C 243.72 390.06 215.69 395.58 188.65 387.66
  Q 184.79 386.53 181.18 384.14
  Z"
/>
</svg>
