<?xml version="1.0" encoding="UTF-8" standalone="no"?>
<!DOCTYPE svg PUBLIC "-//W3C//DTD SVG 1.1//EN" "http://www.w3.org/Graphics/SVG/1.1/DTD/svg11.dtd">
<svg xmlns="http://www.w3.org/2000/svg" version="1.1" viewBox="0 0 642 407">
<g stroke-width="2.00" fill="none" stroke-linecap="butt">
<path stroke="#c4c9cf" vector-effect="non-scaling-stroke" d="
  M 557.19 52.56
  Q 557.07 93.32 557.56 134.06
  C 557.68 144.83 557.23 156.91 557.24 166.33
  Q 557.29 248.88 557.21 331.50
  A 0.50 0.50 0.0 0 1 556.71 332.00
  L 278.03 332.00
  A 0.48 0.48 0.0 0 1 277.55 331.52
  C 277.48 310.94 278.20 290.03 277.06 269.50
  C 276.54 260.20 277.48 252.45 277.59 239.90
  A 0.45 0.44 89.4 0 0 277.14 239.45
  L 271.20 239.50
  A 0.55 0.54 89.0 0 0 270.66 240.07
  C 271.72 272.56 270.61 298.08 270.80 338.27
  A 0.49 0.49 0.0 0 0 271.29 338.75
  L 563.28 338.75
  A 0.71 0.70 -0.0 0 0 563.99 338.05
  Q 564.03 248.08 563.97 158.18
  C 563.97 150.55 563.35 140.57 563.55 131.68
  C 564.21 103.05 564.01 74.44 563.97 45.79
  A 0.51 0.50 90.0 0 0 563.47 45.28
  Q 524.23 45.22 485.00 45.26
  Q 482.38 45.27 477.69 46.64
  Q 476.11 47.10 470.09 46.35
  Q 466.22 45.86 462.52 46.02
  C 450.43 46.53 436.72 45.27 426.49 45.27
  Q 365.26 45.23 304.03 45.26
  C 300.96 45.26 298.05 47.08 295.32 46.90
  Q 283.83 46.15 272.94 45.82
  A 1.22 1.22 0.0 0 0 271.68 47.00
  C 270.73 79.53 270.74 111.60 270.75 143.98
  A 0.53 0.52 0.0 0 0 271.28 144.50
  L 277.11 144.50
  A 0.43 0.43 0.0 0 0 277.54 144.07
  Q 277.49 112.67 277.48 81.27
  C 277.47 72.51 276.67 62.84 276.47 53.48
  Q 276.42 50.93 278.97 51.02
  C 285.79 51.28 293.64 50.41 300.72 51.40
  C 304.87 51.98 309.89 52.00 313.81 52.00
  Q 369.21 52.00 424.61 52.00
  Q 431.14 52.00 443.87 51.42
  C 453.33 50.99 462.74 51.18 472.21 51.00
  C 479.12 50.87 486.84 52.03 492.77 52.01
  Q 524.73 51.94 556.68 52.06
  A 0.51 0.50 0.0 0 1 557.19 52.56"
/>
<path stroke="#c4c9cf" vector-effect="non-scaling-stroke" d="
  M 76.10 187.75
  A 0.40 0.40 0.0 0 1 75.70 187.30
  L 78.35 165.35
  A 0.40 0.40 0.0 0 1 78.74 165.00
  L 108.04 165.00
  A 0.40 0.40 0.0 0 0 108.44 164.65
  L 109.58 154.95
  A 0.40 0.40 0.0 0 0 109.18 154.50
  L 66.64 154.50
  A 0.40 0.40 0.0 0 0 66.25 154.85
  L 57.22 228.55
  A 0.40 0.40 0.0 0 0 57.62 229.00
  L 70.20 229.00
  A 0.40 0.40 0.0 0 0 70.59 228.65
  L 74.29 198.60
  A 0.40 0.40 0.0 0 1 74.68 198.25
  L 99.20 198.25
  A 0.40 0.40 0.0 0 0 99.59 197.90
  L 100.81 188.20
  A 0.40 0.40 0.0 0 0 100.42 187.75
  L 76.10 187.75"
/>
<path stroke="#c4c9cf" vector-effect="non-scaling-stroke" d="
  M 377.96 212.96
  L 366.19 157.46
  Q 365.57 154.51 362.55 154.50
  L 351.98 154.50
  A 0.40 0.39 82.6 0 0 351.60 155.00
  L 369.75 228.47
  A 0.70 0.69 83.0 0 0 370.42 229.00
  L 381.45 229.00
  A 0.85 0.84 12.9 0 0 382.21 228.53
  L 418.28 155.22
  A 0.36 0.36 0.0 0 0 417.98 154.70
  C 414.66 154.41 405.15 153.47 403.52 156.80
  Q 397.06 169.91 378.02 212.97
  Q 377.98 213.06 377.96 212.96"
/>
<path stroke="#c4c9cf" vector-effect="non-scaling-stroke" d="
  M 323.64 175.41
  C 303.77 174.69 291.40 196.80 295.62 214.33
  C 297.52 222.23 304.07 228.65 312.53 229.32
  C 345.34 231.91 355.21 176.55 323.64 175.41"
/>
<path stroke="#c4c9cf" vector-effect="non-scaling-stroke" d="
  M 172.23 218.25
  L 172.50 218.25
  A 0.11 0.11 0.0 0 1 172.61 218.36
  L 172.44 225.42
  Q 172.37 228.71 175.66 228.82
  L 182.62 229.06
  A 0.52 0.52 0.0 0 0 183.16 228.61
  L 189.42 178.20
  A 0.86 0.85 -79.1 0 0 188.80 177.27
  C 180.98 175.12 172.20 174.52 164.62 177.08
  C 148.44 182.52 139.17 199.31 141.44 216.01
  C 142.34 222.57 146.43 228.56 153.43 229.26
  C 162.02 230.12 167.39 225.17 172.03 218.35
  A 0.25 0.23 16.2 0 1 172.23 218.25"
/>
<path stroke="#c4c9cf" vector-effect="non-scaling-stroke" d="
  M 211.60 185.97
  L 211.98 179.62
  Q 212.18 176.25 208.81 176.15
  L 201.96 175.95
  A 0.67 0.67 0.0 0 0 201.27 176.54
  L 195.04 228.36
  A 0.57 0.56 -86.4 0 0 195.60 229.00
  L 206.98 229.00
  A 0.70 0.69 -86.8 0 0 207.67 228.38
  Q 208.99 216.81 210.28 205.26
  Q 211.33 195.89 218.40 189.08
  C 222.27 185.35 230.56 183.01 230.75 191.04
  Q 230.83 193.98 230.53 196.50
  L 226.74 228.56
  A 0.39 0.38 -86.7 0 0 227.12 228.99
  L 238.72 229.00
  A 0.70 0.68 -85.8 0 0 239.41 228.39
  Q 241.37 211.94 243.25 195.47
  C 244.40 185.38 241.56 174.07 228.60 175.62
  C 222.77 176.31 218.05 179.10 214.34 183.71
  Q 213.27 185.04 211.94 186.14
  Q 211.57 186.44 211.60 185.97"
/>
<path stroke="#c4c9cf" vector-effect="non-scaling-stroke" d="
  M 275.44 175.67
  C 247.76 178.44 238.91 228.53 269.51 229.39
  Q 282.45 229.75 290.27 219.85
  A 0.67 0.66 -40.9 0 0 290.33 219.12
  Q 288.72 216.14 285.78 214.51
  A 0.88 0.88 0.0 0 0 284.89 214.53
  C 281.19 216.78 277.23 219.81 273.02 219.93
  C 266.20 220.13 263.62 215.10 263.15 208.93
  C 262.53 200.60 265.80 189.89 273.76 186.18
  Q 279.85 183.34 285.71 188.18
  Q 287.47 189.64 288.99 187.93
  L 293.17 183.22
  A 0.66 0.65 -43.9 0 0 293.19 182.37
  Q 286.78 174.54 275.44 175.67"
/>
<path stroke="#c4c9cf" vector-effect="non-scaling-stroke" d="
  M 122.99 187.74
  L 123.32 179.17
  Q 123.43 176.42 120.68 176.28
  L 113.37 175.91
  A 0.64 0.64 0.0 0 0 112.70 176.47
  L 106.35 228.40
  A 0.54 0.54 0.0 0 0 106.89 229.00
  L 118.12 229.00
  A 0.59 0.58 -86.7 0 0 118.70 228.48
  Q 119.88 219.08 121.03 209.68
  C 122.20 200.11 126.26 184.77 139.53 188.46
  A 0.55 0.55 0.0 0 0 140.22 188.03
  L 142.29 177.01
  A 0.66 0.65 13.0 0 0 141.82 176.26
  C 133.19 173.81 127.06 181.08 123.70 187.89
  A 0.19 0.19 0.0 0 1 123.53 188.00
  L 123.24 188.00
  A 0.25 0.25 0.0 0 1 122.99 187.74"
/>
<path stroke="#c4c9cf" vector-effect="non-scaling-stroke" d="
  M 425.12 218.99
  Q 424.67 218.99 424.95 218.64
  Q 437.47 203.08 449.88 187.49
  C 452.79 183.84 453.66 181.03 453.57 176.57
  A 0.58 0.58 0.0 0 0 452.99 176.00
  L 416.87 176.00
  A 0.72 0.71 3.6 0 0 416.16 176.62
  L 415.12 185.06
  A 0.62 0.61 3.6 0 0 415.74 185.75
  L 436.99 185.75
  Q 437.62 185.75 437.23 186.25
  Q 424.49 202.52 411.60 218.69
  C 409.12 221.79 408.65 224.78 408.57 228.52
  A 0.51 0.51 0.0 0 0 409.08 229.05
  L 446.25 228.88
  A 0.70 0.69 -87.3 0 0 446.94 228.25
  L 447.75 219.66
  A 0.61 0.59 -87.4 0 0 447.16 219.00
  L 425.12 218.99"
/>
<path stroke="#c4c9cf" vector-effect="non-scaling-stroke" d="
  M 321.36 185.18
  C 308.85 185.49 306.22 204.73 308.33 213.57
  C 310.50 222.66 322.10 220.21 325.86 214.05
  C 329.67 207.82 335.02 184.84 321.36 185.18"
/>
<path stroke="#c4c9cf" vector-effect="non-scaling-stroke" d="
  M 174.98 184.42
  C 150.86 184.84 148.56 221.98 161.40 218.77
  C 172.74 215.94 175.01 194.95 175.99 185.52
  A 1.00 1.00 0.0 0 0 174.98 184.42"
/>
</g>
<path fill="#ffffff" d="
  M 0.00 0.00
  L 642.00 0.00
  L 642.00 407.00
  L 0.00 407.00
  L 0.00 0.00
  Z
  M 557.19 52.56
  Q 557.07 93.32 557.56 134.06
  C 557.68 144.83 557.23 156.91 557.24 166.33
  Q 557.29 248.88 557.21 331.50
  A 0.50 0.50 0.0 0 1 556.71 332.00
  L 278.03 332.00
  A 0.48 0.48 0.0 0 1 277.55 331.52
  C 277.48 310.94 278.20 290.03 277.06 269.50
  C 276.54 260.20 277.48 252.45 277.59 239.90
  A 0.45 0.44 89.4 0 0 277.14 239.45
  L 271.20 239.50
  A 0.55 0.54 89.0 0 0 270.66 240.07
  C 271.72 272.56 270.61 298.08 270.80 338.27
  A 0.49 0.49 0.0 0 0 271.29 338.75
  L 563.28 338.75
  A 0.71 0.70 -0.0 0 0 563.99 338.05
  Q 564.03 248.08 563.97 158.18
  C 563.97 150.55 563.35 140.57 563.55 131.68
  C 564.21 103.05 564.01 74.44 563.97 45.79
  A 0.51 0.50 90.0 0 0 563.47 45.28
  Q 524.23 45.22 485.00 45.26
  Q 482.38 45.27 477.69 46.64
  Q 476.11 47.10 470.09 46.35
  Q 466.22 45.86 462.52 46.02
  C 450.43 46.53 436.72 45.27 426.49 45.27
  Q 365.26 45.23 304.03 45.26
  C 300.96 45.26 298.05 47.08 295.32 46.90
  Q 283.83 46.15 272.94 45.82
  A 1.22 1.22 0.0 0 0 271.68 47.00
  C 270.73 79.53 270.74 111.60 270.75 143.98
  A 0.53 0.52 0.0 0 0 271.28 144.50
  L 277.11 144.50
  A 0.43 0.43 0.0 0 0 277.54 144.07
  Q 277.49 112.67 277.48 81.27
  C 277.47 72.51 276.67 62.84 276.47 53.48
  Q 276.42 50.93 278.97 51.02
  C 285.79 51.28 293.64 50.41 300.72 51.40
  C 304.87 51.98 309.89 52.00 313.81 52.00
  Q 369.21 52.00 424.61 52.00
  Q 431.14 52.00 443.87 51.42
  C 453.33 50.99 462.74 51.18 472.21 51.00
  C 479.12 50.87 486.84 52.03 492.77 52.01
  Q 524.73 51.94 556.68 52.06
  A 0.51 0.50 0.0 0 1 557.19 52.56
  Z
  M 76.10 187.75
  A 0.40 0.40 0.0 0 1 75.70 187.30
  L 78.35 165.35
  A 0.40 0.40 0.0 0 1 78.74 165.00
  L 108.04 165.00
  A 0.40 0.40 0.0 0 0 108.44 164.65
  L 109.58 154.95
  A 0.40 0.40 0.0 0 0 109.18 154.50
  L 66.64 154.50
  A 0.40 0.40 0.0 0 0 66.25 154.85
  L 57.22 228.55
  A 0.40 0.40 0.0 0 0 57.62 229.00
  L 70.20 229.00
  A 0.40 0.40 0.0 0 0 70.59 228.65
  L 74.29 198.60
  A 0.40 0.40 0.0 0 1 74.68 198.25
  L 99.20 198.25
  A 0.40 0.40 0.0 0 0 99.59 197.90
  L 100.81 188.20
  A 0.40 0.40 0.0 0 0 100.42 187.75
  L 76.10 187.75
  Z
  M 377.96 212.96
  L 366.19 157.46
  Q 365.57 154.51 362.55 154.50
  L 351.98 154.50
  A 0.40 0.39 82.6 0 0 351.60 155.00
  L 369.75 228.47
  A 0.70 0.69 83.0 0 0 370.42 229.00
  L 381.45 229.00
  A 0.85 0.84 12.9 0 0 382.21 228.53
  L 418.28 155.22
  A 0.36 0.36 0.0 0 0 417.98 154.70
  C 414.66 154.41 405.15 153.47 403.52 156.80
  Q 397.06 169.91 378.02 212.97
  Q 377.98 213.06 377.96 212.96
  Z
  M 323.64 175.41
  C 303.77 174.69 291.40 196.80 295.62 214.33
  C 297.52 222.23 304.07 228.65 312.53 229.32
  C 345.34 231.91 355.21 176.55 323.64 175.41
  Z
  M 172.23 218.25
  L 172.50 218.25
  A 0.11 0.11 0.0 0 1 172.61 218.36
  L 172.44 225.42
  Q 172.37 228.71 175.66 228.82
  L 182.62 229.06
  A 0.52 0.52 0.0 0 0 183.16 228.61
  L 189.42 178.20
  A 0.86 0.85 -79.1 0 0 188.80 177.27
  C 180.98 175.12 172.20 174.52 164.62 177.08
  C 148.44 182.52 139.17 199.31 141.44 216.01
  C 142.34 222.57 146.43 228.56 153.43 229.26
  C 162.02 230.12 167.39 225.17 172.03 218.35
  A 0.25 0.23 16.2 0 1 172.23 218.25
  Z
  M 211.60 185.97
  L 211.98 179.62
  Q 212.18 176.25 208.81 176.15
  L 201.96 175.95
  A 0.67 0.67 0.0 0 0 201.27 176.54
  L 195.04 228.36
  A 0.57 0.56 -86.4 0 0 195.60 229.00
  L 206.98 229.00
  A 0.70 0.69 -86.8 0 0 207.67 228.38
  Q 208.99 216.81 210.28 205.26
  Q 211.33 195.89 218.40 189.08
  C 222.27 185.35 230.56 183.01 230.75 191.04
  Q 230.83 193.98 230.53 196.50
  L 226.74 228.56
  A 0.39 0.38 -86.7 0 0 227.12 228.99
  L 238.72 229.00
  A 0.70 0.68 -85.8 0 0 239.41 228.39
  Q 241.37 211.94 243.25 195.47
  C 244.40 185.38 241.56 174.07 228.60 175.62
  C 222.77 176.31 218.05 179.10 214.34 183.71
  Q 213.27 185.04 211.94 186.14
  Q 211.57 186.44 211.60 185.97
  Z
  M 275.44 175.67
  C 247.76 178.44 238.91 228.53 269.51 229.39
  Q 282.45 229.75 290.27 219.85
  A 0.67 0.66 -40.9 0 0 290.33 219.12
  Q 288.72 216.14 285.78 214.51
  A 0.88 0.88 0.0 0 0 284.89 214.53
  C 281.19 216.78 277.23 219.81 273.02 219.93
  C 266.20 220.13 263.62 215.10 263.15 208.93
  C 262.53 200.60 265.80 189.89 273.76 186.18
  Q 279.85 183.34 285.71 188.18
  Q 287.47 189.64 288.99 187.93
  L 293.17 183.22
  A 0.66 0.65 -43.9 0 0 293.19 182.37
  Q 286.78 174.54 275.44 175.67
  Z
  M 122.99 187.74
  L 123.32 179.17
  Q 123.43 176.42 120.68 176.28
  L 113.37 175.91
  A 0.64 0.64 0.0 0 0 112.70 176.47
  L 106.35 228.40
  A 0.54 0.54 0.0 0 0 106.89 229.00
  L 118.12 229.00
  A 0.59 0.58 -86.7 0 0 118.70 228.48
  Q 119.88 219.08 121.03 209.68
  C 122.20 200.11 126.26 184.77 139.53 188.46
  A 0.55 0.55 0.0 0 0 140.22 188.03
  L 142.29 177.01
  A 0.66 0.65 13.0 0 0 141.82 176.26
  C 133.19 173.81 127.06 181.08 123.70 187.89
  A 0.19 0.19 0.0 0 1 123.53 188.00
  L 123.24 188.00
  A 0.25 0.25 0.0 0 1 122.99 187.74
  Z
  M 425.12 218.99
  Q 424.67 218.99 424.95 218.64
  Q 437.47 203.08 449.88 187.49
  C 452.79 183.84 453.66 181.03 453.57 176.57
  A 0.58 0.58 0.0 0 0 452.99 176.00
  L 416.87 176.00
  A 0.72 0.71 3.6 0 0 416.16 176.62
  L 415.12 185.06
  A 0.62 0.61 3.6 0 0 415.74 185.75
  L 436.99 185.75
  Q 437.62 185.75 437.23 186.25
  Q 424.49 202.52 411.60 218.69
  C 409.12 221.79 408.65 224.78 408.57 228.52
  A 0.51 0.51 0.0 0 0 409.08 229.05
  L 446.25 228.88
  A 0.70 0.69 -87.3 0 0 446.94 228.25
  L 447.75 219.66
  A 0.61 0.59 -87.4 0 0 447.16 219.00
  L 425.12 218.99
  Z"
/>
<path fill="#89939e" d="
  M 556.68 52.06
  Q 524.73 51.94 492.77 52.01
  C 486.84 52.03 479.12 50.87 472.21 51.00
  C 462.74 51.18 453.33 50.99 443.87 51.42
  Q 431.14 52.00 424.61 52.00
  Q 369.21 52.00 313.81 52.00
  C 309.89 52.00 304.87 51.98 300.72 51.40
  C 293.64 50.41 285.79 51.28 278.97 51.02
  Q 276.42 50.93 276.47 53.48
  C 276.67 62.84 277.47 72.51 277.48 81.27
  Q 277.49 112.67 277.54 144.07
  A 0.43 0.43 0.0 0 1 277.11 144.50
  L 271.28 144.50
  A 0.53 0.52 0.0 0 1 270.75 143.98
  C 270.74 111.60 270.73 79.53 271.68 47.00
  A 1.22 1.22 0.0 0 1 272.94 45.82
  Q 283.83 46.15 295.32 46.90
  C 298.05 47.08 300.96 45.26 304.03 45.26
  Q 365.26 45.23 426.49 45.27
  C 436.72 45.27 450.43 46.53 462.52 46.02
  Q 466.22 45.86 470.09 46.35
  Q 476.11 47.10 477.69 46.64
  Q 482.38 45.27 485.00 45.26
  Q 524.23 45.22 563.47 45.28
  A 0.51 0.50 90.0 0 1 563.97 45.79
  C 564.01 74.44 564.21 103.05 563.55 131.68
  C 563.35 140.57 563.97 150.55 563.97 158.18
  Q 564.03 248.08 563.99 338.05
  A 0.71 0.70 -0.0 0 1 563.28 338.75
  L 271.29 338.75
  A 0.49 0.49 0.0 0 1 270.80 338.27
  C 270.61 298.08 271.72 272.56 270.66 240.07
  A 0.55 0.54 89.0 0 1 271.20 239.50
  L 277.14 239.45
  A 0.45 0.44 89.4 0 1 277.59 239.90
  C 277.48 252.45 276.54 260.20 277.06 269.50
  C 278.20 290.03 277.48 310.94 277.55 331.52
  A 0.48 0.48 0.0 0 0 278.03 332.00
  L 556.71 332.00
  A 0.50 0.50 0.0 0 0 557.21 331.50
  Q 557.29 248.88 557.24 166.33
  C 557.23 156.91 557.68 144.83 557.56 134.06
  Q 557.07 93.32 557.19 52.56
  A 0.51 0.50 0.0 0 0 556.68 52.06
  Z"
/>
<path fill="#89939e" d="
  M 76.10 187.75
  L 100.42 187.75
  A 0.40 0.40 0.0 0 1 100.81 188.20
  L 99.59 197.90
  A 0.40 0.40 0.0 0 1 99.20 198.25
  L 74.68 198.25
  A 0.40 0.40 0.0 0 0 74.29 198.60
  L 70.59 228.65
  A 0.40 0.40 0.0 0 1 70.20 229.00
  L 57.62 229.00
  A 0.40 0.40 0.0 0 1 57.22 228.55
  L 66.25 154.85
  A 0.40 0.40 0.0 0 1 66.64 154.50
  L 109.18 154.50
  A 0.40 0.40 0.0 0 1 109.58 154.95
  L 108.44 164.65
  A 0.40 0.40 0.0 0 1 108.04 165.00
  L 78.74 165.00
  A 0.40 0.40 0.0 0 0 78.35 165.35
  L 75.70 187.30
  A 0.40 0.40 0.0 0 0 76.10 187.75
  Z"
/>
<path fill="#89939e" d="
  M 378.02 212.97
  Q 397.06 169.91 403.52 156.80
  C 405.15 153.47 414.66 154.41 417.98 154.70
  A 0.36 0.36 0.0 0 1 418.28 155.22
  L 382.21 228.53
  A 0.85 0.84 12.9 0 1 381.45 229.00
  L 370.42 229.00
  A 0.70 0.69 83.0 0 1 369.75 228.47
  L 351.60 155.00
  A 0.40 0.39 82.6 0 1 351.98 154.50
  L 362.55 154.50
  Q 365.57 154.51 366.19 157.46
  L 377.96 212.96
  Q 377.98 213.06 378.02 212.97
  Z"
/>
<path fill="#89939e" d="
  M 295.62 214.33
  C 291.40 196.80 303.77 174.69 323.64 175.41
  C 355.21 176.55 345.34 231.91 312.53 229.32
  C 304.07 228.65 297.52 222.23 295.62 214.33
  Z
  M 321.36 185.18
  C 308.85 185.49 306.22 204.73 308.33 213.57
  C 310.50 222.66 322.10 220.21 325.86 214.05
  C 329.67 207.82 335.02 184.84 321.36 185.18
  Z"
/>
<path fill="#89939e" d="
  M 172.03 218.35
  C 167.39 225.17 162.02 230.12 153.43 229.26
  C 146.43 228.56 142.34 222.57 141.44 216.01
  C 139.17 199.31 148.44 182.52 164.62 177.08
  C 172.20 174.52 180.98 175.12 188.80 177.27
  A 0.86 0.85 -79.1 0 1 189.42 178.20
  L 183.16 228.61
  A 0.52 0.52 0.0 0 1 182.62 229.06
  L 175.66 228.82
  Q 172.37 228.71 172.44 225.42
  L 172.61 218.36
  A 0.11 0.11 0.0 0 0 172.50 218.25
  L 172.23 218.25
  A 0.25 0.23 16.2 0 0 172.03 218.35
  Z
  M 174.98 184.42
  C 150.86 184.84 148.56 221.98 161.40 218.77
  C 172.74 215.94 175.01 194.95 175.99 185.52
  A 1.00 1.00 0.0 0 0 174.98 184.42
  Z"
/>
<path fill="#89939e" d="
  M 211.94 186.14
  Q 213.27 185.04 214.34 183.71
  C 218.05 179.10 222.77 176.31 228.60 175.62
  C 241.56 174.07 244.40 185.38 243.25 195.47
  Q 241.37 211.94 239.41 228.39
  A 0.70 0.68 -85.8 0 1 238.72 229.00
  L 227.12 228.99
  A 0.39 0.38 -86.7 0 1 226.74 228.56
  L 230.53 196.50
  Q 230.83 193.98 230.75 191.04
  C 230.56 183.01 222.27 185.35 218.40 189.08
  Q 211.33 195.89 210.28 205.26
  Q 208.99 216.81 207.67 228.38
  A 0.70 0.69 -86.8 0 1 206.98 229.00
  L 195.60 229.00
  A 0.57 0.56 -86.4 0 1 195.04 228.36
  L 201.27 176.54
  A 0.67 0.67 0.0 0 1 201.96 175.95
  L 208.81 176.15
  Q 212.18 176.25 211.98 179.62
  L 211.60 185.97
  Q 211.57 186.44 211.94 186.14
  Z"
/>
<path fill="#89939e" d="
  M 269.51 229.39
  C 238.91 228.53 247.76 178.44 275.44 175.67
  Q 286.78 174.54 293.19 182.37
  A 0.66 0.65 -43.9 0 1 293.17 183.22
  L 288.99 187.93
  Q 287.47 189.64 285.71 188.18
  Q 279.85 183.34 273.76 186.18
  C 265.80 189.89 262.53 200.60 263.15 208.93
  C 263.62 215.10 266.20 220.13 273.02 219.93
  C 277.23 219.81 281.19 216.78 284.89 214.53
  A 0.88 0.88 0.0 0 1 285.78 214.51
  Q 288.72 216.14 290.33 219.12
  A 0.67 0.66 -40.9 0 1 290.27 219.85
  Q 282.45 229.75 269.51 229.39
  Z"
/>
<path fill="#89939e" d="
  M 123.24 188.00
  L 123.53 188.00
  A 0.19 0.19 0.0 0 0 123.70 187.89
  C 127.06 181.08 133.19 173.81 141.82 176.26
  A 0.66 0.65 13.0 0 1 142.29 177.01
  L 140.22 188.03
  A 0.55 0.55 0.0 0 1 139.53 188.46
  C 126.26 184.77 122.20 200.11 121.03 209.68
  Q 119.88 219.08 118.70 228.48
  A 0.59 0.58 -86.7 0 1 118.12 229.00
  L 106.89 229.00
  A 0.54 0.54 0.0 0 1 106.35 228.40
  L 112.70 176.47
  A 0.64 0.64 0.0 0 1 113.37 175.91
  L 120.68 176.28
  Q 123.43 176.42 123.32 179.17
  L 122.99 187.74
  A 0.25 0.25 0.0 0 0 123.24 188.00
  Z"
/>
<path fill="#89939e" d="
  M 425.12 218.99
  L 447.16 219.00
  A 0.61 0.59 -87.4 0 1 447.75 219.66
  L 446.94 228.25
  A 0.70 0.69 -87.3 0 1 446.25 228.88
  L 409.08 229.05
  A 0.51 0.51 0.0 0 1 408.57 228.52
  C 408.65 224.78 409.12 221.79 411.60 218.69
  Q 424.49 202.52 437.23 186.25
  Q 437.62 185.75 436.99 185.75
  L 415.74 185.75
  A 0.62 0.61 3.6 0 1 415.12 185.06
  L 416.16 176.62
  A 0.72 0.71 3.6 0 1 416.87 176.00
  L 452.99 176.00
  A 0.58 0.58 0.0 0 1 453.57 176.57
  C 453.66 181.03 452.79 183.84 449.88 187.49
  Q 437.47 203.08 424.95 218.64
  Q 424.67 218.99 425.12 218.99
  Z"
/>
<path fill="#ffffff" d="
  M 174.98 184.42
  A 1.00 1.00 0.0 0 1 175.99 185.52
  C 175.01 194.95 172.74 215.94 161.40 218.77
  C 148.56 221.98 150.86 184.84 174.98 184.42
  Z"
/>
<path fill="#ffffff" d="
  M 308.33 213.57
  C 306.22 204.73 308.85 185.49 321.36 185.18
  C 335.02 184.84 329.67 207.82 325.86 214.05
  C 322.10 220.21 310.50 222.66 308.33 213.57
  Z"
/>
</svg>
